<svg width="1000.0000000000001" height="1000.0000000000001" xmlns="http://www.w3.org/2000/svg" preserveAspectRatio="xMidYMid meet">
 <!-- Created with Method Draw - http://github.com/duopixel/Method-Draw/ -->

 <g>
  <title>background</title>
  <rect fill="#fff" id="canvas_background" height="1002" width="1002" y="-1" x="-1"/>
 </g>
 <g>
  <title>Layer 1</title>
  <path stroke-miterlimit="10" stroke="#FFFFFF" id="path5" d="m505.43645,173.25979c0,0 0.8,0.5 1.3,0.7s1.7,0.8 2,1.3s1.7,2.3 1.7,2.8s0,1.8 -0.3,2.3c-0.5,0.5 -1,1 -1.5,1.3s-1.5,0.7 -1.8,1.3c-0.3,0.5 -0.2,1.2 -0.5,1.8s-1.3,2.3 -1.3,2.7c-0.2,0.5 0,1 0.3,1c0.3,0.2 2.3,0.5 3,0.7c0.7,0.3 2.2,1 2.7,1.7c0.7,0.5 1.5,1.3 2.5,1.5c0.8,0.2 1.8,0.3 2.2,-0.2s1,-3.3 1.3,-3.8c0.2,-0.5 0.7,-1 1.2,-1.2s3,0.8 3.5,1c0.3,0.2 3.2,1.5 4,2s2.7,1.5 2.7,1.8c-0.2,0.3 -1,2 -1,2.8c0,1 0.3,2.3 0.7,2.8c0.3,0.5 0.8,3.3 1.5,4.2c0.7,0.7 4,7 4.8,7.2s3.3,0.7 8.2,-1c5,-1.7 5.2,-1 6,-1.2s2.7,-0.7 3.8,-1c1.2,-0.3 4,-1.5 5,-1.8c1.2,-0.3 2.3,-0.5 2.8,-1s1.8,-2.3 2.3,-3s2.5,-2.7 3.2,-2.5c0.5,0.3 4,1.2 4.8,2.2c1.2,0.8 2.8,2.2 3.2,2.5c0.5,0.3 2.7,1.7 3.3,2.7c1.5,1.3 1,3.2 0.7,3.8c-0.3,0.5 -1.5,3.5 -1.8,4.2s0,3.2 -0.2,3.8s-0.8,1.5 -1.2,1.8s-0.5,0.8 -0.7,1.5s0.3,3 -0.2,3.7s-1.5,2 -1.7,2.5s-0.3,2.5 0.2,3.5s1.3,4 0.8,4.8s-1.5,1.8 -1,2.3s1.7,3.3 2,4.3s0.5,2.8 0.2,3.2s-2.2,1 -2.8,1.3s-2.3,2.5 -2.5,3.2c-0.2,0.5 -0.8,4.7 -1,6.2c-0.2,1.7 -0.2,5.7 0.2,7c0.3,1.3 1.3,3.7 1,4.7s-0.3,3 -0.8,2.8c-0.5,0 -0.8,-0.2 -1.3,-0.8c-0.7,-0.7 -0.8,-0.3 -1,-1.7c-0.3,-1.7 -0.5,-2.8 -0.8,-3.5s-1.2,-1.5 -1.7,-1.3s-1.8,1.5 -2.2,1.8c-0.3,0.3 -1.3,1.8 -2,2.3s-2,3 -2.7,3.5s-1.8,2.3 -2.5,3c-0.5,0.5 -2.2,2.7 -2.7,3s-2.3,3 -2.5,3.2c-0.2,0.3 -1.7,1.8 -2.5,2.7c-0.8,0.8 -2.7,2.3 -2.8,2.7c-0.2,0.3 -1.2,1 -1.5,1.7c-0.3,0.7 -0.7,2 -0.3,2.8c0.3,0.8 2,3 2.7,3.5s3.2,1.8 3.7,2.2c0.5,0.3 1.2,1.5 1.3,2.2c0.2,0.7 1,1.8 1.5,2.2c0.5,0.2 1.7,0.8 2,0.7c0.3,-0.2 0.7,-0.3 1.3,-0.8c0.7,-0.5 1.7,-1.5 1.7,-1.7s-0.5,-1.3 -0.3,-2s1,-1 1.3,-1s1.2,1 1.5,1.5c0.5,0.5 0.5,0.7 1.2,0.7s1.8,0 1.8,0.3s-0.7,3.8 -1,4.2c-0.3,0.3 -2.3,1 -3.7,1s-3.7,0.3 -4,0.7c-0.3,0.3 -0.5,1.3 -0.5,1.8s1.3,2.7 1.8,3.2s1.8,1.3 2.3,1.5s1.3,0.5 1.2,0.8c-0.2,0.3 -0.2,0.8 -0.8,1.5c-0.7,0.7 -2.2,1.5 -2.7,1.7s-1.8,0.5 -2,0.8c-0.2,0.2 -0.3,1 -0.2,1.5c0.2,0.5 0.8,2 0.7,2.7c-0.2,0.7 -0.3,2.7 -0.8,2.8c-0.5,0.2 -1,0 -1.7,-0.5c-0.5,-0.5 -2,-1.8 -2.7,-1.8s-1.3,0.2 -1.7,0.5c-0.2,0.3 -0.5,1.2 -1,1.3c-0.5,0.2 -1.7,-0.5 -2.7,-0.8c-1,-0.5 -2.5,-1 -3.2,-1.7s-1.5,-1.5 -1.7,-1.7s-0.7,1.8 -0.5,2.3s-0.3,3.2 -1,3.3c-0.7,0.2 -1.5,1.2 -1.2,1.5s2.3,1.3 3,1.2c0.7,-0.2 1.3,-0.3 1.8,-0.2c0.5,0.2 2.2,2.7 2.7,3s3.2,3 3.2,3.7s-1,5.5 -1.3,5.8c-0.3,0.5 -0.2,2.3 0.3,2.8s1,1.8 1,2.3c0.2,0.5 0,2.3 0.3,3s2,2.8 2.8,2.8c0.8,0.2 1.3,-0.2 1.5,0.5s0.2,2.8 0.5,3.2c0.3,0.3 1.3,0.5 2,0s4.7,-2 5.2,-2.7s2.2,-2.3 2.7,-3s0.8,-1.5 1.3,-1.5c0.5,0.2 3.3,4.5 3.7,4.8c0.5,0.7 2.3,2.3 2.3,2.8s1,3 1.5,3.3c0.5,0.5 2.2,2 2.3,2.5c0.2,0.5 0.5,2.5 0,2.8s-1.8,2.2 -2,2.5s-0.3,2.3 0.7,2.3c1,-0.2 2.8,0.2 3.7,-0.2s1.8,-0.7 1.8,-0.5s-0.2,5.3 -0.3,6c-0.2,0.7 -2.2,2.2 -3,2.5s-1.3,2.2 -2,2.8c-0.5,0.7 -1.5,2.5 -2.2,3.2s-2.8,1.3 -3.5,1.5s-3,-0.3 -3.8,-0.5s-2.8,-0.5 -2.8,-0.2s0.2,1.5 0.2,2.2s-0.7,1.3 -1,1.3c-0.5,0 -2.7,-0.5 -3.5,-0.5s-1.7,1.3 -1.8,1.5c-0.2,0.3 -1.2,3.7 -2,4.2s-2.8,0.8 -3.8,1c-1.7,-0.2 -3.8,1.5 -4.3,1.8s-2.2,2 -3,2.3c-0.8,0.5 -4.2,2 -4.8,2.2c-0.5,0.2 -1.3,0.5 -1.8,1s-3.3,3.2 -3.8,3.8c-0.5,0.7 -2.8,3.5 -3.2,4c-0.3,0.5 -1.8,3.7 -2.2,4.2c-0.3,0.3 -0.8,-0.8 -1.2,-1.7c-0.3,-0.7 -2.5,-5.8 -3,-6.3c-0.3,-0.5 -3.5,-3.2 -4.8,-3.8c-1.2,-0.7 -3.2,-1.2 -3.8,-0.7c-0.7,0.5 -1.2,1.8 -1,2.7c0.2,0.7 0.8,4.2 1.5,5.2s0.5,4.3 1,5.3c0.5,1.2 0.5,3.7 0.3,4.3c-0.2,0.7 -0.7,3.8 -0.8,3.8s-3.5,0.8 -4.2,0.8s-3.2,0.3 -4.2,0.5c-1,0 -3.2,0.3 -4.5,0.2c-1.3,-0.2 -1.5,0.5 -1.7,-0.3c-0.3,-0.8 -1,-3 -1.3,-3.3c-0.2,-0.2 -2.3,-2.2 -2.5,-2.3c-0.2,-0.2 -1.7,-1.5 -1.5,-1.8s1.5,-0.3 2.3,-0.8s1.7,-1.5 1.5,-1.7s-3.8,-3 -4.5,-3.5s-2.7,-2.7 -2.8,-3.5c-0.3,-0.8 -3.8,-6.2 -4.3,-6.5s-2.3,-0.7 -3.3,0.2c-1.2,0.8 -2.8,2.8 -3.3,3.2c-0.5,0.3 -3.7,0.2 -4.5,0.3c-0.8,0.2 -2,1.2 -2.2,2.2c-0.3,0.8 0.2,2.2 0,2.7s-0.7,1.2 -0.3,1.8c0.3,0.7 1,3.3 0.5,4s-3,0.8 -3.8,1s-5,-0.2 -5.2,0c-0.2,0.3 -1.8,1.2 -2.5,2.3c-0.7,1.2 -2.2,1 -2.5,0.7s-1.3,-0.7 -2.2,-0.7c-0.8,0.2 -3.2,0.7 -4,1.3c-0.8,0.7 -3.2,2.3 -4.2,3c-1,0.5 -4.5,2.3 -5,2.5s-2.8,0.2 -2.7,-1.7c0.2,-1.8 -0.2,-5 -0.3,-5.7s-1.3,-3.2 -1.7,-3.3c-0.3,-0.2 -3.2,1 -3.7,1.5s-2.5,2.2 -2.7,2.5s-1.3,1.3 -1.8,2s-0.2,6.3 -0.7,7s-2.3,0.8 -3,1.2c-0.7,0.3 -0.7,1 -0.2,1.7s0,2.8 -0.5,3.8s-0.5,2.7 -0.3,3c0.2,0.5 1.7,3 2.7,3.7c0.8,0.7 1.5,2 1.2,2.8c0.2,1.7 -0.3,4 -1.2,4.5c-0.8,0.7 -3,2 -3.2,2.2c-0.3,0.2 -2.5,2.2 -3.5,2.5s-3.2,0.3 -4.2,0.3s-3.7,-0.3 -4.8,0.5c-0.8,1.2 -2.3,2.7 -3,3.5c-0.7,0.7 -1.8,1.2 -2.5,1.2s-4.8,-1.5 -5.5,-1.2s-1.7,2.2 -2.2,3s-1.5,3.5 -1.8,4c-0.3,0.7 -1.7,3.7 -2.2,4c-0.5,0.5 -2.7,0.8 -3.5,0.5s-3.7,-1.3 -4,-1.5c-0.5,0 -1.7,0.8 -2.5,1.8s-1.7,3 -2,3.3s-1.3,-0.5 -2,-1s-1.8,-1 -2.5,-0.5c-0.7,0.7 -2.5,2.3 -3,3.2c-0.5,0.8 -1.2,3.2 -2,3.2s-2,-0.8 -3,-1.3s-1.5,-0.2 -2.7,-0.5c-1.2,-0.5 -2.8,-1.2 -3.2,-1.5c-0.3,-0.2 -1.3,-1 -1.3,-1s0.7,1.3 1,2.2c0.3,0.8 1.2,2.5 0.8,2.8c-0.3,0.3 -2.5,1 -3.5,1.5c-1,0.3 -2.2,1.2 -2.5,1.7s-0.2,2.2 -0.7,3c-0.5,0.7 -2.3,2.5 -3.2,3s-2.7,1 -3,1.3s-1.3,1.8 -1.5,2.2c-0.3,0.5 -2.2,3 -2.5,3.5s-1.8,2.5 -2.3,3.2s-1,2.3 -0.3,2.8s1.7,3.3 1.8,3.8c0.2,0.7 -0.8,2.3 -1.3,2.2s-1.8,-1.5 -2.3,-1.3s0,0.5 -0.3,1.5c-0.3,0.8 -0.5,2.3 -0.8,3.3c-0.3,0.8 -0.2,1.5 -0.8,1.5c-0.5,0.5 -1.3,0.7 -3.7,1c-1.2,0.3 -5.3,0.7 -6.5,0.8c-1.2,0.2 -1.7,-0.2 -2.2,-0.7c-0.2,-0.2 -0.7,-1 -1.2,-1.8s0.5,-1.8 -8.5,-3.5l-6.2,-4.3c0,0 -0.7,-0.8 -2,-1c0,0 -11.8,1.2 -9,-5.5c0,0 2,-5.2 2.7,-5.3c0,0 3.8,-2.8 4,-3.5c0,0 2.8,-2.7 -0.2,-3.5c0,0 -3,-0.8 -2.8,-2.7l-0.8,-3.8c0,0 0.5,-0.8 -3.7,1.7l-7.7,6.2c0,0 -1.3,0.8 -1.5,2.2l-1.3,10.7l-0.8,9c0,0 -1.3,6.5 -8.1,4.5c0,0 -0.6,-1.1 -5.6,2.4c0.8,-0.1 -8.3,1.9 -8.9,1.5l-4.5,1.8c0,0 -4.7,-2.5 -5.5,-4.2c0,0 -1.3,-2.5 -6.3,-3.7c0,0 -5.5,-3.3 -2.7,-6c0,0 2.7,-1.7 1.5,-3.8c0,0 -2.5,-3 1,-4.7c0,0 4.2,-2.2 4.5,-2l3.5,-4.8c0,0 5.7,-3 2.7,-6.5c0,0 -3.2,-3.7 -0.8,-5c0,0 4,-2.5 -1.2,-1.2c0,0 -12,2.3 -13,4.2c0,0 -3.7,4.7 -8.2,1.8c0,0 -3.7,-1.8 -5.3,-1.5c0,0 -8.8,2.5 -9.2,2.2c0,0 -1.7,-0.2 -0.2,1.5c0,0 3.8,6.2 -1.2,7c0,0 -8.2,1.5 -10.8,-4.5c0,0 -0.2,-2.7 -3.5,-1.8c0,0 -5,-0.8 -1.7,-6c0,0 3,-5.2 -0.7,-3.3c0,0 -4.3,3.7 -10.2,-4.8c0,0 -5,-4.7 -8.5,-4.8c0,0 -6.3,-0.3 -2,-2.8l7.2,-6c0,0 5,-6.5 5,-10.7c0,0 0.2,-4.7 -7.3,-3.8c0,0 -4,0.3 -5.8,2.3c0,0 -1,1.2 -4.5,0.3c0,0 -4.2,1.3 -5.5,3.5c0,0 -1.3,-1.5 -1.8,-0.3c-0.5,1.3 -2,4.5 -2,1.8c0,0 0.2,-4.5 -2.5,-0.5c0,0 -4.8,3.8 -3,-1.5c0,0 2,-2.5 0.2,-5.2c0,0 -1.8,-3.3 -2.3,-3.7c0,0 -12,-7.8 -9,-9.8c0,0 5.8,-1.7 3.7,-6c0,0 -1.8,-5 -2.8,-5.7c0,0 -3.3,-6.3 -4.7,-15.2l23.5,5.3c0,0 16.2,2.3 29,0.2c0,0 21.7,1.8 22.7,3.2c0,0 3.8,11 15.3,9.2c0,0 10.8,5.3 12.8,6.7c0,0 12.5,0.2 13.3,-0.2c0,0 2.2,-1 1.7,4.5l7.5,0l5.2,-3.3l14.8,-6.2c0,0 20,-7.3 20.7,-8c0,0 7.2,0.7 8.3,0.3c0,0 9.3,-1.7 11.2,-1c0,0 12,0.5 14,-1.2c0,0 8.7,-4 10,-3.8c0,0 8.2,-4.7 8.8,-6.8c0,0 1.8,-5.7 14,-11.8c0,0 9.2,-4.2 4.2,-7.8c0,0 -11.7,-8 -6.3,-15.5c0,0 4,-12.3 10.3,-9.3l18.3,5.3c0,0 1.8,0.3 3.7,-0.7c0,0 2.5,-0.8 3.5,-0.8c0,0 5.2,-1.8 9,-8c0,0 -0.3,-7.5 14.2,-5c0,0 8.2,-2.5 13,-9.8c0,0 0.8,-13.5 12,-12.8c0,0 4.2,-0.5 4.7,-4.5c0,0 0.2,-2.2 4,-1.2c0,0 5.7,-1.2 6.5,-3c0,0 2.2,-1.5 5.5,-1c0,0 5.8,-2 8,-1.2c0,0 17.5,5 11,-6.8c0,0 -2.5,-5.3 -11.7,-11.3c0,0 -4.2,-2.5 -5.5,-2.2c0,0 -5.2,-4 -5.2,-4.3c0,0 -6.5,-2.8 -10.7,1.7c0,0 -6.7,8.7 -8.8,5.7c0,0 -5.3,-4.2 -7.2,-2.5c0,0 -3.5,2.5 -7,1.7c0,0 -2.2,-0.5 -3.3,1.8c0,0 -5.3,2.7 -6.3,-0.7c0,0 -5.3,-5.3 -2.3,-6.2c0,0 3.8,-1.8 2,-5.7c0,0 -0.8,-2.7 1.8,-4c0,0 2,-3.7 1.8,-5.5c0,0 1.3,-7.3 2.8,-8.7c0,0 3.5,-12.7 5.7,-12c0,0 6.8,2.8 8.3,1c0,0 1.7,-2 8,2.3c0,0 2.3,-3.2 4.8,-4.2c0,0 8,-7.2 11,-6.3c0,0 1.8,-0.3 3.2,-2.3c0,0 3,-4.3 0.7,-4.3c0,0 -5.7,-0.7 -1.8,-4.7c0,0 3.3,-3.5 2.3,-5.8c0,0 -0.8,-2.7 1.2,-3.7c0,0 2.8,-1.3 0.5,-3.8c0,0 -1.2,-1.8 1,-1.2c0,0 1.8,-0.3 1.2,-3.5c0,0 -0.3,-2.7 2.8,-6.2c0,0 9.2,-9.8 6.8,-11c0,0 -3.8,-1.2 -2.7,-4.2c0,0 0.2,-6.5 -7.3,-3.2c0,0 -2.3,2 -2.2,-1c0,0 0,-2.2 2.3,-3.3c0,0 3.2,-2.3 6.8,-9c0,0 1.5,-1.2 3.3,-1c0,0 5.3,-0.8 5.8,-2l0.5,1.1z" stroke-linejoin="round" fill="#E3E3E4"/>
  <path stroke-miterlimit="10" stroke="#FFFFFF" id="path10" d="m506.03645,174.05979c0,0 1.5,-2 7.2,-2.2c0,0 1.3,-3.5 14.9,-5.1c0,0 4.7,0.3 5.5,-1.3c0,0 0.8,-0.5 4,0.8l13.4,4.7c0,0 1.8,0.5 3.3,-0.8c0,0 2.7,-2.2 5,-0.7c0,0 4,0.7 4.7,0.5c0,0 1.7,-0.2 1.3,2.3c0,0 -0.3,2.8 1.3,1.5c0,0 3.7,-1.5 5,1.5c0,0 -2.8,2.3 -0.3,2.7c0,0 2.3,-0.2 4.7,2.7c0,0 1.7,1.7 1.7,2.8c0,0 0,1.5 2.2,1.5c0,0 2,0 1.5,1.8c0,0 0.2,1.5 2.5,3.8l2.5,3.2c0,0 1.2,2.7 2.3,3.5c0,0 1,0.8 0.3,1.7c0,0.2 -1,1.5 1,1.5c0,0 1.7,-0.2 1.2,1.2c0,0 0.2,1.8 2.3,3.2c0,0 5.8,3.9 7.3,10.1c0,0 2.8,3.9 4.3,5.1c0,0 0.7,2.2 0.3,3.8c0,0 -0.2,3.2 3.2,4.6c0,0 6,3.2 8.8,2.3c0,0 1.8,-0.2 6.2,-2.7c0,0 2.3,-1.2 2.3,0.7c0,0 0,1.8 1.8,1.3c0,0 1.7,-0.3 2,0.8c0,0 0.5,1 2.3,0c0,0 2.7,-3 5,-1.5l10.7,6.4c0,0 2,1.2 5,-0.2c0,0 4.7,-0.8 4,1.3c0,0 -2.7,3.2 0.7,5.1c0,0 5,2.5 3.5,6.6c0,0 -1.3,2.5 2.7,5.9c0,0 4.7,4.4 7.2,2.3c0,0 2,-1.7 4.7,-1c0,0 5,0.5 6.8,-1l6.2,-3.7c0,0 1.7,-0.8 1.8,-2c0,0 0.5,-2.7 1.8,-3.2l4.5,-4.7c0,0 2,-1.5 3.3,-1.5c0,0 6.8,-2.8 10.7,-5.9c0,0 3.3,-3 5,-3.2c0,0 2.3,-0.7 3.2,-1.5l3.3,-3c0,0 0.2,2.5 -1.2,4.4c0,0 -3.2,6.9 -1.3,8.1c0,0 4.5,3.5 2.5,7.4c0,0 -0.5,2.2 -4.7,5.4c0,0 -2.2,1.8 -0.5,3c0,0 1.2,1.7 -0.2,5.2c0,0 -0.7,2.5 0.2,4.2c0,0 0.3,2.3 -0.2,3.9c0,0 0.5,3.3 1.3,4.4c0,0 0.5,0.7 -0.7,3.5c0,0 -1.2,2.7 -0.3,3.8c0,0 1.3,1.8 -0.3,3.2c0,0 -1.5,2 -1,4.1c0,0 0.5,2.2 -1.7,4.2c0,0 -2.3,2 -1.3,4.1c0,0 3,3.8 0.5,6.2c0,0 -6.7,1 -8.5,0.3c0,0 -7.7,-0.8 -10.2,-2.2c0,0 -1.7,-0.3 -1.7,1.5c0,0 0.7,6.6 -3.8,8.9c0,0 -2.2,1.8 -3.7,0.8c0,0 -3,-0.3 -1.7,2.7c0,0 4.8,6.1 5.5,7.4c0,0 4.3,8.7 4.3,10.4c0,0 1,4.7 2,5.4c0,0 2.2,3 1.3,4.6c0,0 -1.5,-1.2 -4,-0.5c0,0 -3.7,0.5 -4.2,0c0,0 -2,-2 -3,-1.8c0,0 -4.5,0.5 -5.5,-1.5c0,0 -0.5,-2.7 -0.5,-3c0,0 -1,-3.3 -1.7,-3.7c0,0 -1,-0.5 -3,4.2c0,0 -0.5,1.7 -2.7,0c0,0 -1.7,-1.8 -3.5,0.8c0,0 -0.8,1.5 -3.5,2.2c0,0 -3.3,0.8 -3.2,3.2c0,0 0.8,3.5 -2.2,4.1c0,0 -2.2,1 -4.8,-2.2l-5.2,-6.2c0,0 -4.5,-2 -3,-5.4c0,0 1.2,-4.2 -2.3,-2.2l-3.7,3.9c0,0 -0.8,0.7 0.3,2.7c0,0 1.8,2.2 0,3.3c0,0 -2,1.8 -4,-0.7l-2.2,-2.3c0,0 -3.5,-5.4 -4,-5.6c0,0 -2.8,-1.3 -4.3,-0.8c0,0 -4.5,2.2 -4.2,-0.3c0,0 0.5,-4.7 -0.7,-5.4c0,0 -0.5,-2 -1.3,-2.2c0,0 -1.3,-1.3 -2,-1.7l-5.5,-1.2c0,0 0.2,-0.7 -5,2.7c0,0 -3.7,1.2 -7.2,-1c0,0 -2.2,-2.3 -2.8,-3.8c0,0 -0.2,-1.5 -2.3,-0.3c0,0 -1.7,0.5 -2.3,2c0,0 -1.3,2.3 -5,0.8c0,0 -2.3,-2.8 -4,-0.3c0,0 -0.2,2.7 -6,2.5c0,0 0,0.5 -4.7,-2.8c0,0 -3.5,-0.7 -2.7,-2.5c0,0 1.3,-1.2 -0.7,-3c0,0 -1.8,-1.5 -0.8,-3.3c0,0 1.2,-1.8 -1,-2.8c0,0 -1.3,-1.3 -2,-1c0,0 -3.7,2.8 -5.3,2.7c0,0 -1.3,0.2 -1.7,0.3c0,0 -3,-1.7 -4.2,-1.5c0,0 -4.5,-3 -2.7,-5.1c0,0 0.3,-1.5 4.7,-1c0,0 3.8,0.3 3.5,-3.2c0,0 1.3,-3 -0.3,-2.7c0,0 -2,0.7 -2.2,-0.2c0,0 -1.8,-3.2 -2.8,-1.3c0,0 -0.2,0.7 0.2,2.2l-0.8,1c0,0 -1.8,2.3 -3.3,1.5c0,0 -2,-0.8 -2.8,-3.2c0,0 -1.7,-2.3 -4.2,-3.5c0,0 -4.3,-2.5 -3.2,-6.2c0,0 -0.2,-0.7 5.5,-5.4c0,0 2.2,-2.7 2.5,-3.2c0.3,-0.3 5.8,-6.2 5.8,-6.2l4.8,-6.6c0,0 2.7,-2.3 3,-2.5c0.3,0 1.3,0 1.7,0.8l1.3,4.6c0,0 2,1.7 2,2c0.2,0.3 1.2,-2.5 1,-3.9c0,0 -1.8,-5.6 -1.2,-8.1c0,0 0.2,-8.6 1.5,-9.4c0,0 2,-3 4.2,-3.2c0,0 1.8,0 0.7,-4.1l-1.8,-3.5c0,0 -0.5,-1 0.3,-1.5c0,0 1,-0.7 0.3,-2.7c0,0 -1.8,-6.2 -0.5,-7.2c0,0 2,-2 1.7,-3.8c0,0 -0.5,-2.8 0.3,-3.5c0,0 1.7,-1.2 1.2,-3.8c0,0 0.3,-4.4 1.5,-5.1c0,0 2.3,-3 -0.8,-5.1l-4.3,-3.3c0,0 -3,-2.5 -6.3,-3.5c0,0 -0.7,-0.3 -4,3.5c0,0 -1.5,2.7 -4.8,3c0,0 -6.7,2.5 -7.2,2.7c0,0 -7.3,1.2 -7.7,1.3c0,0 -6.5,2.8 -8.2,0.8c0,0 -5.5,-7.4 -5.5,-9.1c0,0 -2,-4.2 -0.8,-5.7c0,0 1.7,-2 -0.5,-2.8l-7.7,-3.7c0,0 -2.5,-1 -2.8,1c0,0 0,5.7 -3.8,3.7c0,0 -4.5,-3.5 -6.7,-3.8c0,0 -2.3,0.3 -1,-1.3c0,0 1.3,-1.2 1.3,-2.2c0,0 0.5,-2.5 1.3,-2.8c0,0 4.2,-2.2 2.5,-5.1c0,0 -1.2,-2 -2.7,-2.7l-2,-0.8l0,-0.1l0.7,0l0,0.7z" stroke-linejoin="round" fill="#E3E3E4"/>
  <path stroke-miterlimit="10" stroke="#FFFFFF" id="path11" d="m554.03645,307.35979c0,0 1,-0.3 3.5,1.5c0,0 0.8,0.2 1.3,-0.2c0,0 0.5,-0.5 1.5,-0.3c0,0 2.5,-0.7 2.7,-1.2c0,0 1.2,-1 1.5,-1.2c0.3,-0.2 0.8,-0.8 1.8,0.2l1.5,1c0,0 1,0.5 0.5,2c0,0 -0.7,2 0.5,3.5c0,0 1.8,1.5 1,3c0,0 -0.7,1.7 1.5,2.3c0,0 4,2 4.5,2.7c0,0 0.7,1 3.2,0.5c0,0 2.5,-0.3 3.2,-0.8c0,0 1.3,-2.7 2.7,-2.7c0,0 1.5,0 2.2,1.2c0,0 2.8,1.7 4.2,0.2c0,0 1.8,-2.8 3.5,-3c0,0 1.7,-1 2.3,0.7c0,0 1.7,4 5.2,4.5c0,0 3.7,1.5 6.9,-1.3c0,0 2,-2 4,-1.2l4.5,1.2c0,0 2.2,1.7 2.3,2.2c0,0 1.3,2.3 1.5,3.2l-0.2,3.7c0,0 -0.2,1.5 2,0.8c0,0 4.2,-2 6.4,0.2c0,0 3.8,5.3 4.2,5.7l3.3,3.2c0,0 1.2,1 2.3,0c0,0 2.2,-0.8 1.2,-2.7c0,0 -1.8,-2.3 -1,-3.5l4.2,-4.5c0,0 2,-1.2 2.2,0.8c0,0 -0.7,3.2 -0.5,3.7c0,0 -0.3,1.5 3.2,3.2l4.7,6c0,0 3,4.5 6.6,2.2c0,0 1.5,-0.8 1,-4.7c0,0 0.3,-1 2.2,-1.8c0,0 4,-1.3 4.5,-2.8c0,0 1,-2.2 3.2,-0.8c0,0 1.7,2.2 2.8,0c0,0 1.7,-3.8 2.5,-3.8c0,0 0.7,-0.7 1.2,0.8c0,0 1.7,4.8 1.7,5.8c0,0 1.5,1.3 3,1.2c0,0 3.2,0 3.8,0.7c0,0 1,0.5 1.2,1c0,0 1,0.7 1.7,0.3c0,0 4.7,-0.2 5.3,-0.2c0,0 0.8,-0.2 1,0.5c0,0 0,5.2 0.3,5.5c0,0 0.3,2.8 -1.7,4.3c0,0 -1.5,2.5 -5.2,2.7c0,0 -1.8,0.3 -0.8,2.3l2.7,4.8c0,0 0,0.3 -2,-0.2c0,0 -4.7,-0.5 -5.3,-3c0,0 -1.5,-6.2 -4.7,-5.8c0,0 -4,-0.5 -3.8,1.2c0,0 -0.2,5.8 0.2,7.3c0,0 0.7,2.8 0.2,3.7c0,0 -1.7,2.2 -4.7,1.5c0,0 -1.5,0.5 -2,4c0,0 -1.2,4.2 -4.8,6.3c0,0 -5.5,2 -6.6,1.5c0,0 -4.8,-1.2 -5,-0.7c0,0 0.7,2.5 0.7,4.7c0,0 1.3,2.8 2.5,3.8c0,0 2.7,2.7 2.5,3.3c0,0 -0.7,2.7 -2.2,3.5c0,0 -4.2,-0.7 -5,0.7c0,0 -0.7,0.3 -1.5,-0.2l-1.7,0l-3.8,-0.5c0,0 -3.7,0.8 -4.5,-0.2c0,0 -4,-4.7 -4.7,-3.7c0,0 -3.7,1.8 -3.7,4.2c0,0 0.7,1.7 -1,3.5c0,0 -4,6.5 -5.8,11.5c0,0 -0.2,0.7 -1.2,1l-2,1c0,0 -2.8,-1.3 -2.2,-2.5c0,0 2.2,-2.8 -0.2,-4c0,0 -3.5,-1.5 -5,-4.2c0,0 -2.5,-3.3 -3.3,-4c0,0 -1.7,-1.7 -1.7,-3.5c0,0 -1.2,-3.2 0,-2.2c0,0 2.8,2 0.7,-2.3c0,0 -1.5,-2.2 -3,-2.8c0,0 -2,-3.2 -2.8,-4.3l-3.3,-3.7c0,0 -2.8,-2.7 -3.3,-5.5c0,0 -1.2,-4.5 -3.2,-2.3l-0.7,3.7c0,0 -0.2,1.8 -2,2c0,0 -2.3,0.7 -2.5,-2.2c0,0 0.5,-3 -3.5,-4.3c0,0 -5.8,-3 -6.6,-3.3c0,0 -1.3,-0.5 -2.7,0.7c0,0 -6.8,2.3 -6.6,-0.5c0,0 0,-2.2 2,-3.3c0,0 2,-1.3 -1.2,-4.7c0,0 -2.7,-1.8 -2.8,-4.3c0,0 -1,-1.8 -1.8,-2.2c0,0 -1.2,-0.7 -3.7,-5c0,0 -0.3,-1 -1.5,1c0,0 -3.2,4.2 -5.2,4.5c0,0 -4,2.5 -4.5,1.8c0,0 -0.7,0.3 -0.7,-3.2c0,0 0.3,-0.5 -2,-1.2c0,0 -3.2,-1 -2.7,-4.2c0,0 -0.2,-2.2 -1.3,-3.8c0,0 -1.2,-1.3 0,-3.7c0,0 2,-5 0.2,-6.5l-3.2,-3c0,0 -1.2,-2.5 -2.2,-2.3c0,0 -1.3,0.5 -2.3,0.2c0,0 -3.3,-0.5 -1.8,-1.8c0,0 1.8,-1.2 2,-2.7l0.2,-3.7l2.5,2.5c0,0 4.3,1.7 4.7,2c0,0 0.7,0.8 1.3,-1c0,0 0.5,-2.3 3.2,-0.5c0,0 2.8,3.8 3.8,0.5c0,0 0.7,-2 -0.3,-3.5c0,0 -1.2,-2.2 0.7,-2.8c0,0 3.2,-0.5 3.5,-1.7c0,0 2,-1.5 1.2,-2c-0.7,0.3 -3,-0.8 -2.8,-1.2z" stroke-linejoin="round" fill="#E3E3E4"/>
  <path stroke="#FFFFFF" stroke-miterlimit="10" id="path12" d="m621.03645,408.75979c0,0 -4.3,3.5 -4.5,4.2c0,0 -2,2.2 -4.2,2.2c0,0 -3.7,0.2 -4.2,5.2c0,0 0,1 -2.7,3.3c0,0 -3,2.3 -3.8,4.3c0,0 -2.8,2.7 -1.5,6.7l0.3,0.5c0,0 -0.8,0 -1.7,1c0,0 -2.8,0.2 -4.5,-0.7c0,0 -4.2,0 -4.7,0.8c0,0 -2.2,2.3 -4,1.7c0,0 -1.7,-0.7 -1.5,1c0,0 0.3,2 -2.3,1.8c0,0 -1.3,-0.5 -1.5,0.7l-3,1.8c0,0 -6.5,3.7 -6.8,4.5c0,0 -2,1.3 -2.3,2.8c0,0 -0.5,2.2 -2.2,2.2c0,0 -1.2,-0.2 0,1.8c0,0 0.8,2.2 -1.3,2.5c0,0 -1.2,-0.3 -1.3,1c0,0 0,2.2 -1.8,0.7c0,0 -1,-1.3 -1.2,0.7l-2.5,3.7c0,0 -3,1.3 -3.3,1.5c0,0 -2,1.3 -3.2,-0.2c0,0 -1,-2.8 -0.5,-3.3c0,0 2.3,-1.7 2.5,-2c0,0 2.5,-0.8 3.2,-0.7c0,0 2.3,-1.3 2.2,-1.8c0,0 -2.2,-2.3 -0.2,-3.7c0,0 2.2,-1.5 2.7,-1.5c0,0 1.7,-2.2 -0.3,-1.5l-3.7,1.3c0,0 -2,0.7 -2,-2.7c0,0 0.2,-2.5 -0.7,-3.3c0,0 -1.8,-2.5 0.2,-4.2c0,0 2.5,-1.5 3.2,-1.5c0,0 0.7,-0.8 0.8,-2.3c0,0 0.3,-1.5 1,-1.5c0,0 0.8,-2.7 1.3,-2.7c0,0 1.8,1.5 1.8,-1c0,0 -0.5,-3.2 1.2,-4.5c0,0 1.3,-1 -0.3,-1.8c0,0 -3,-0.7 -3,-2.2c0,0 0,-0.7 -1.3,-0.8c0,0 -2,-0.7 -2.3,-2.7c0,0 -1.8,-2.3 -3,-1.3l-1.8,1.3l-4,0.8c0,0 -2.8,-0.8 -3.5,0l-1.5,2.3c0,0 -2.2,0.2 -2.8,1.5l-1.5,3.5c0,0 -1.8,1.7 -2.2,2.7l-1.5,1.5c0,0 -0.3,0.7 1,1.2c0,0 0.5,0.5 -0.5,1.2c0,0 -0.7,0.7 -0.8,2.2c0,0 -0.7,2 -4.2,2c0,0 -1.5,0.3 -2.3,1.8c0,0 -2.2,0.8 -2.7,1.8c0,0 -0.7,-3.2 -3.5,-4.2c0,0 -3.8,-1.3 -3.5,-5.5c0,0 -3,1 -4.7,0.7c0,0 -2.8,-3.8 -4.5,-3.5c0,0 -5,0.5 -3.7,-3.5c0,0 3.7,-1.7 3.3,-4.3l1.3,-4.7l1.2,-0.5l0.8,-5.7l-1.5,-6.8c0,0 -3.5,-7.8 -0.3,-8.7c0,0 5,0.2 9.3,6l2.8,6.2l3.5,-5.3c0,0 4.5,-5.7 6.2,-6.5c0,0 6.7,-2.2 9.3,-5.3c0,0 1.2,-1.7 6.5,-2c0,0 2.5,0 3,-3c0,0 0.8,-4.3 3.2,-3.3c0,0 4,1.2 4,-1c0,0 -1.5,-3.3 2.2,-2c0,0 5.3,1.7 8,-0.8c0,0 2.2,-2.5 2.3,-3.7c0,0 2.3,-3.3 3.8,-3.7c0,0 1,-0.5 1.5,-2.5l0,-4.7c0,0 1.2,-1.5 2.7,-0.7l8.8,4.7c0,0 1.2,0.7 1.2,3.3c0,0 0,2 2,1.8c0,0 1.7,0.2 2.2,-2c0,0 0,-5 2,-4.3c0,0 0.5,-0.7 3.7,7c0,0 4.8,4.8 5,5.3l2.7,4.2c0,0 3.8,2.2 3.8,5c0,0 0.2,1.3 -1.3,0.3c0,0 -0.8,-0.7 -0.5,0.8l0.7,3.5l2.5,3l3.7,4.5l3,1.8c0,0 2.5,0.7 0.8,3.3c-0.1,-0.4 -1.6,1.5 1.7,3z" stroke-linejoin="round" fill="#E3E3E4"/>
  <path fill="#fff" stroke="#000" stroke-width="1.5" opacity="0.5" d="m577.81416,396.22948" id="svg_1"/>
  <polyline fill="none" stroke="#000" stroke-width="1.5" points="0.75,999.25 0.75,999.25 " id="svg_2" stroke-linecap="round"/>
  <polyline fill="none" stroke="#000" stroke-width="1.5" points="580.1092365114916,399.180295916024 580.1092365114916,399.180295916024 " id="svg_3" stroke-linecap="round"/>
  <polyline fill="none" stroke="#000" stroke-width="1.5" points="620.7649709620765,386.39341169366264 620.7649709620765,386.39341169366264 " id="svg_5" stroke-linecap="round"/>
  <polyline fill="none" stroke="#000" stroke-width="1.5" points="606.9944802610719,369.0163639042998 606.9944802610719,369.0163639042998 " id="svg_6" stroke-linecap="round"/>
  <polyline fill="none" stroke="#000" stroke-width="1.5" points="595.1912025173538,431.6393097112489 595.1912025173538,431.6393097112489 " id="svg_7" stroke-linecap="round"/>
  <polyline fill="none" stroke="#000" stroke-width="1.5" points="606.0108737824288,315.68302816958345 606.0108737824288,315.68302816958345 " id="svg_8" stroke-linecap="round"/>
  <polyline fill="none" stroke="#000" stroke-width="1.5" points="524.6994048812592,439.2895756524098 524.6994048812592,439.2895756524098 " id="svg_9" stroke-linecap="round"/>
  <polyline stroke-linecap="round" id="svg_10" points="515.1515151515151,328.5984848484849 515.1515151515151,328.5984848484849 " stroke-width="1.5" stroke="#000" fill="none"/>
  <polyline stroke-linecap="round" id="svg_11" points="635.2272727272727,374.0530303030303 635.2272727272727,374.0530303030303 " stroke-width="1.5" stroke="#000" fill="none"/>
</g>
</svg>