<?xml version="1.0" standalone="no"?><!DOCTYPE svg PUBLIC "-//W3C//DTD SVG 1.1//EN" "http://www.w3.org/Graphics/SVG/1.1/DTD/svg11.dtd"><svg t="1534464603946" class="icon" style="" viewBox="0 0 1024 1024" version="1.1" xmlns="http://www.w3.org/2000/svg" p-id="1482" xmlns:xlink="http://www.w3.org/1999/xlink" width="200" height="200"><defs><style type="text/css"></style></defs><path d="M572.79 950.807l-55.245 60.992-61.386-67.092C370.22 920.31 32.606 816.627 38.747 389.69l110.49 97.586-24.552 18.297c-12.281 12.196-12.281 24.397-12.281 36.594 6.14 67.088 171.893 273.23 368.322 285.435V459.227H259.702c-20.345 0-36.837-16.492-36.837-36.837v-36.837c0-20.345 16.492-36.837 36.837-36.837h221.024v-117.28c-42.827-15.222-73.675-55.699-73.675-103.745 0-61.036 49.476-110.512 110.512-110.512s110.512 49.476 110.512 110.512c0 48.048-30.847 88.524-73.675 103.745v117.28h221.024c20.345 0 36.837 16.49 36.837 36.836v36.837c0 20.345-16.492 36.837-36.837 36.837H554.4V827.6c227.118-12.204 362.141-218.346 362.141-285.435 0-18.297 12.275-30.493 0-36.594l-18.418-18.297 98.22-97.586c6.136 426.939-306.923 536.722-423.553 561.119zM517.563 90.853c-20.345 0-36.837 16.492-36.837 36.837s16.492 36.837 36.837 36.837c20.346 0 36.837-16.491 36.837-36.837s-16.491-36.837-36.837-36.837z" p-id="1483"></path></svg>