<?xml version="1.0" standalone="no"?><!DOCTYPE svg PUBLIC "-//W3C//DTD SVG 1.1//EN" "http://www.w3.org/Graphics/SVG/1.1/DTD/svg11.dtd"><svg t="1534464623027" class="icon" style="" viewBox="0 0 1024 1024" version="1.1" xmlns="http://www.w3.org/2000/svg" p-id="2055" xmlns:xlink="http://www.w3.org/1999/xlink" width="200" height="200"><defs><style type="text/css"></style></defs><path d="M745.447 870.222L671.732 792.3c120.822-54.403 204.146-169.848 204.146-303.535 0-185.969-161.344-336.723-360.338-336.723-199.025 0-360.34 150.754-360.34 336.723 0 132.771 82.222 247.552 201.684 302.397l-76.312 80.133C135.287 795.933 37.037 651.819 37.037 486.396c0-212.178 161.63-389.326 376.874-431.245v-7.079c0-20.866 16.943-37.81 37.808-37.81h122.905c20.865 0 37.809 16.943 37.809 37.81v7.522c214.07 42.8 374.531 219.384 374.531 430.802-0.001 164.633-97.331 308.18-241.517 383.826z m-321.675 49.789c54.372-16.535 51.209-58.291 51.209-58.291V663.23l0.887-0.063-0.127-14.92c2.402-15.741-21.244-33.854-37.808-38.566-11.379-3.288-59.998-14.036-88.985-20.423V471.031c0-33.916 27.5-61.42 61.421-61.42h206.769c33.92 0 61.422 27.504 61.422 61.42v119.556c-28.83 6.321-78.584 17.354-90.154 20.672-16.535 4.711-40.938 22.827-38.568 38.567v83.519h-0.818v127.584c5.5 50.42 68.531 67.742 68.531 67.742l223.682 39.389v45.678H184.347l0.759-46.467 238.666-47.26z" p-id="2056"></path></svg>